<?xml version="1.0" encoding="utf-8"?>
<!-- Generator: Adobe Illustrator 27.9.0, SVG Export Plug-In . SVG Version: 6.00 Build 0)  -->
<svg version="1.1" id="Layer_1" xmlns="http://www.w3.org/2000/svg" xmlns:xlink="http://www.w3.org/1999/xlink" x="0px" y="0px"
	 viewBox="0 0 28.91 26.86" style="enable-background:new 0 0 28.91 26.86;" xml:space="preserve">
<style type="text/css">
	.st0{fill:none;stroke:#000000;stroke-miterlimit:10;}
	.st1{fill:#FFFFFF;stroke:#000000;stroke-miterlimit:10;}
	.st2{fill:none;stroke:#000000;stroke-width:0.75;stroke-miterlimit:10;}
</style>
<path class="st0" d="M26.88,9.12"/>
<path class="st0" d="M22.54,9.12"/>
<g>
	<path class="st1" d="M13.22,21.55"/>
	<path class="st1" d="M23.53,16.2l-2.1-5.65H7.84l-2.62,5.64h-3.1c-0.9,0-1.63,0.73-1.63,1.63v4.49c0,0.9,0.73,1.63,1.63,1.63h21.26
		c0.9,0,1.63-0.73,1.63-1.63v-4.49C25.01,16.97,24.36,16.28,23.53,16.2z"/>
	<circle class="st1" cx="7.27" cy="24.25" r="2.11"/>
	<circle class="st1" cx="18.5" cy="24.25" r="2.11"/>
	<path class="st0" d="M17.22,3.24l10.15,0.07c0.67-0.21,1.11,0.7,1.02,0.57v15.06c-0.77,1.28-3.38,0.96-3.38,0.96"/>
	<path class="st0" d="M13.95,0.5c-0.1,0-0.2,0.02-0.3,0.02c0,1.7,0,3.62,0,5.44c0.1,0.01,0.2,0.02,0.3,0.02
		c2.04,0,3.7-1.23,3.7-2.74C17.66,1.73,16,0.5,13.95,0.5z"/>
	<path class="st0" d="M13.86,1.06H8.33c0,0-0.77,0.81,0,1.36h5.53"/>
	<path class="st0" d="M13.86,3.8H8.33c0,0-0.77,0.81,0,1.36h5.53"/>
	<polygon class="st2" points="12.26,21.55 16.28,16.96 14.51,16.52 15.47,13.18 11.44,17.76 13.21,18.21 	"/>
</g>
</svg>
