<?xml version="1.0" encoding="utf-8"?>
<!-- Generator: Adobe Illustrator 27.9.0, SVG Export Plug-In . SVG Version: 6.00 Build 0)  -->
<svg version="1.1" id="Layer_1" xmlns="http://www.w3.org/2000/svg" xmlns:xlink="http://www.w3.org/1999/xlink" x="0px" y="0px"
	 viewBox="0 0 30.26 39.81" style="enable-background:new 0 0 30.26 39.81;" xml:space="preserve">
<style type="text/css">
	.st0{fill:none;stroke:#000000;stroke-miterlimit:10;}
	.st1{fill:#FFFFFF;stroke:#000000;stroke-width:0.75;stroke-miterlimit:10;}
	.st2{fill:none;stroke:#000000;stroke-width:0.75;stroke-miterlimit:10;}
</style>
<path class="st0" d="M23.88,39.31H6.37c-3.24,0-5.87-2.63-5.87-5.87V6.37c0-3.24,2.63-5.87,5.87-5.87h17.51
	c3.24,0,5.87,2.63,5.87,5.87v27.06C29.76,36.68,27.13,39.31,23.88,39.31z"/>
<path class="st0" d="M24.17,37.48H6.06c-2.19,0-3.97-1.78-3.97-3.97V6.76c0-2.19,1.78-3.97,3.97-3.97h18.11
	c2.19,0,3.97,1.78,3.97,3.97v26.75C28.14,35.7,26.36,37.48,24.17,37.48z"/>
<path d="M22.07,10.87h-7.12c-0.66,0-1.19-0.53-1.19-1.19v0c0-0.66,0.53-1.19,1.19-1.19h7.12c0.66,0,1.19,0.53,1.19,1.19v0
	C23.27,10.33,22.73,10.87,22.07,10.87z"/>
<path d="M23.97,18.18h-9.01c-0.66,0-1.19-0.53-1.19-1.19v0c0-0.66,0.53-1.19,1.19-1.19h9.01c0.66,0,1.19,0.53,1.19,1.19v0
	C25.16,17.64,24.63,18.18,23.97,18.18z"/>
<path d="M19.71,25.48h-4.75c-0.66,0-1.19-0.53-1.19-1.19v0c0-0.66,0.53-1.19,1.19-1.19h4.75c0.66,0,1.19,0.53,1.19,1.19v0
	C20.9,24.95,20.37,25.48,19.71,25.48z"/>
<path d="M23.16,32.79h-8.2c-0.66,0-1.19-0.53-1.19-1.19v0c0-0.66,0.53-1.19,1.19-1.19h8.2c0.66,0,1.19,0.53,1.19,1.19v0
	C24.35,32.26,23.82,32.79,23.16,32.79z"/>
<path class="st1" d="M10.34,11.73H6.79c-0.7,0-1.28-0.57-1.28-1.28V8.89c0-0.7,0.57-1.28,1.28-1.28h3.55c0.7,0,1.28,0.57,1.28,1.28
	v1.56C11.62,11.16,11.05,11.73,10.34,11.73z"/>
<path class="st1" d="M10.34,19.04H6.79c-0.7,0-1.28-0.57-1.28-1.28V16.2c0-0.7,0.57-1.28,1.28-1.28h3.55c0.7,0,1.28,0.57,1.28,1.28
	v1.56C11.62,18.47,11.05,19.04,10.34,19.04z"/>
<path class="st1" d="M10.34,26.35H6.79c-0.7,0-1.28-0.57-1.28-1.28v-1.56c0-0.7,0.57-1.28,1.28-1.28h3.55c0.7,0,1.28,0.57,1.28,1.28
	v1.56C11.62,25.78,11.05,26.35,10.34,26.35z"/>
<path class="st1" d="M10.34,33.66H6.79c-0.7,0-1.28-0.57-1.28-1.28v-1.56c0-0.7,0.57-1.28,1.28-1.28h3.55c0.7,0,1.28,0.57,1.28,1.28
	v1.56C11.62,33.09,11.05,33.66,10.34,33.66z"/>
<polyline class="st2" points="6.62,8.51 8.5,10.38 12.84,7.62 "/>
<polyline class="st2" points="6.62,15.82 8.5,17.69 12.84,14.93 "/>
<polyline class="st2" points="6.62,23.13 8.5,25 12.84,22.24 "/>
<polyline class="st2" points="6.62,30.44 8.5,32.31 12.84,29.55 "/>
</svg>
